# xmcd
#
# Track frame offsets: 
#        150
#        674
#        20208
#        36559
#        52711
#        66204
#        84310
#        101669
#        120377
#        140228
#        155571
#        172986
#        191383
#        211220
#        229180
#        240879
#        259458
#        275575
#        288204
#        301074
#        315846
#
# Disc length: 4406 seconds
#
# Revision: 0
# Processed by: cddbd v1.5.2PL0 Copyright (c) Steve Scherf et al.
# Submitted via: ExactAudioCopy v0.99pb4
#
DISCID=19113415
DTITLE=Various Artist - prevue promo 1082A-3
DYEAR=2002
DGENRE=pop
TTITLE0=blank - data
TTITLE1=Backstreet Boys - Drowning(Dann Huff's Remix 1)
TTITLE2=Michelle Branch - All You Wanted
TTITLE3=Suzanne Vega - Last Years Troubles
TTITLE4=Cranberries, The - Time Is Ticking Out
TTITLE5=Cher - (This Is A) Song For The Lonely
TTITLE6=Britney Spears - I'm Not A Girl, Not Yet A Woman("Crossroads" 
TTITLE6=Movie)
TTITLE7=Mary J. Blige - No More Drama
TTITLE8=Mr. Cheeks - Lights, Camera, Action!(Lyrics!!? - "Clean Edit")
TTITLE9=Jay-Z - Jigga
TTITLE10=J Lo feat. Ja Rule - Ain't It Funny(Lyrics!! - Remix)
TTITLE11=Usher - U Got It Bad(Original Version)
TTITLE12=Neil Young - Let's Roll
TTITLE13=Cracker - Shine
TTITLE14=Barenaked Ladies - It's Only Me (The Wizard Of Magicland)
TTITLE15=Ike Reilly - Put A Little Love In It(With Intro)
TTITLE16=Ike Reilly - Put A Little Love In It(No Intro)
TTITLE17=Lostprophets - Shinobi Vs. Dragon Ninja
TTITLE18=Sum 41 - Motivation
TTITLE19=SOil - Unreal
TTITLE20=Alien Ant Farm - Movies
EXTD=
EXTT0=
EXTT1=
EXTT2=
EXTT3=
EXTT4=
EXTT5=
EXTT6=
EXTT7=
EXTT8=
EXTT9=
EXTT10=
EXTT11=
EXTT12=
EXTT13=
EXTT14=
EXTT15=
EXTT16=
EXTT17=
EXTT18=
EXTT19=
EXTT20=
PLAYORDER=
